# xmcd
# 
# Track frame offsets:
#     150
#     26753
#     44452
#     72698
#     98066
#     120521
#     148602
#     169432
#     188298
#     209857
#     272204
# 
# Disc length: 4311
# 
# Revision: 1
# Processed by: cddbd v1.5.2PL0 Copyright (c) Steve Scherf et al.
# Submitted via: fre:ac v1.0.31
# 
DISCID=ab10d50b
DTITLE=Jazziz - Jazziz April 1998
DYEAR=1998
DGENRE=Jazz
TTITLE0=Faith In You~Marc Johnson
TTITLE1=Club Havana~Gregg Karukas (feat. Eric Marienthal)
TTITLE2=Oasis~Tom Harrell
TTITLE3=Lost In The Hours~Oregon
TTITLE4=Hero~Brian Bromberg
TTITLE5=How Can I Tell You~Charles LLoyd
TTITLE6=One 2 One~Brian Hughes
TTITLE7=Boss  Town~Joe Lovano and Gonzalo Rubalcaba
TTITLE8=Three Day Weekend~Evan Marks
TTITLE9=Better Git Hit In Your Soul~Charles Mingus
TTITLE10=Earthlink software
EXTD=YEAR: 1998
EXTT0=
EXTT1=
EXTT2=
EXTT3=
EXTT4=
EXTT5=
EXTT6=
EXTT7=
EXTT8=
EXTT9=
EXTT10=
PLAYORDER=
